<svg width="142" height="28" viewBox="0 0 142 28" fill="none" xmlns="http://www.w3.org/2000/svg">
<g clip-path="url(#clip0_1491_1345)">
<path fill-rule="evenodd" clip-rule="evenodd" d="M17.889 8.17971C16.7378 7.41055 15.3845 7 14 7V0C16.7689 0 19.4757 0.821086 21.778 2.35943C24.0803 3.89776 25.8747 6.08427 26.9343 8.64241C27.9939 11.2006 28.2712 14.0155 27.731 16.7313C27.1908 19.447 25.8574 21.9416 23.8995 23.8995C21.9416 25.8574 19.447 27.1908 16.7313 27.731C14.0155 28.2712 11.2006 27.9939 8.64241 26.9343C6.08426 25.8747 3.89776 24.0803 2.35943 21.778C0.821086 19.4757 0 16.7689 0 14H7C7 15.3845 7.41055 16.7378 8.17971 17.889C8.94887 19.0401 10.0421 19.9373 11.3212 20.4672C12.6003 20.997 14.0078 21.1356 15.3656 20.8655C16.7235 20.5954 17.9707 19.9287 18.9498 18.9498C19.9287 17.9707 20.5954 16.7235 20.8655 15.3656C21.1356 14.0078 20.997 12.6003 20.4672 11.3212C19.9373 10.0421 19.0401 8.94887 17.889 8.17971Z" fill="#121212"/>
<path fill-rule="evenodd" clip-rule="evenodd" d="M7 3.69945e-06C7 0.919257 6.81894 1.82951 6.46716 2.67879C6.11537 3.52807 5.59976 4.29974 4.94975 4.94975C4.29974 5.59976 3.52807 6.11538 2.67878 6.46716C1.8295 6.81894 0.91925 7 3.05977e-07 7L0 14C1.8385 14 3.65901 13.6379 5.35757 12.9343C7.05614 12.2308 8.5995 11.1995 9.89947 9.89947C11.1995 8.5995 12.2307 7.05614 12.9343 5.35757C13.6379 3.65901 14 1.8385 14 0L7 3.69945e-06Z" fill="#121212"/>
<path d="M87.9333 10.1172H84.5369V20.9058H87.9333V10.1172Z" fill="#121212"/>
<path d="M84.9149 8.09701C85.2698 8.45219 85.7136 8.62978 86.2463 8.62978C86.779 8.62978 87.2158 8.45219 87.556 8.09701C87.8969 7.72706 88.067 7.28305 88.067 6.76509C88.067 6.23233 87.8969 5.78833 87.556 5.43317C87.2158 5.07797 86.779 4.90039 86.2463 4.90039C85.7136 4.90039 85.2698 5.07797 84.9149 5.43317C84.574 5.78833 84.4039 6.23233 84.4039 6.76509C84.4039 7.28305 84.574 7.72706 84.9149 8.09701Z" fill="#121212"/>
<path d="M35.8093 20.9048V5.23242H39.2946V17.8414H46.2428V20.9048H35.8093Z" fill="#121212"/>
<path fill-rule="evenodd" clip-rule="evenodd" d="M52.5192 21.15C51.4093 21.15 50.4029 20.9059 49.5002 20.4175C48.6122 19.9143 47.9093 19.2336 47.3913 18.3752C46.8733 17.5168 46.6143 16.5549 46.6143 15.4894C46.6143 14.4238 46.8733 13.4693 47.3913 12.6257C47.9093 11.7822 48.6122 11.1162 49.5002 10.6279C50.3881 10.1246 51.3945 9.87305 52.5192 9.87305C53.6439 9.87305 54.6503 10.1173 55.5382 10.6056C56.4262 11.094 57.1292 11.7674 57.6471 12.6257C58.1651 13.4693 58.4241 14.4238 58.4241 15.4894C58.4241 16.5549 58.1651 17.5168 57.6471 18.3752C57.1292 19.2336 56.4262 19.9143 55.5382 20.4175C54.6503 20.9059 53.6439 21.15 52.5192 21.15ZM52.5192 18.0644C53.0076 18.0644 53.4367 17.9608 53.8068 17.7536C54.1767 17.5317 54.4579 17.2283 54.6503 16.8435C54.8575 16.4439 54.9611 15.9925 54.9611 15.4894C54.9611 14.9862 54.8575 14.5496 54.6503 14.1797C54.4431 13.7949 54.1545 13.4989 53.7845 13.2917C53.4293 13.0697 53.0076 12.9587 52.5192 12.9587C52.0456 12.9587 51.6239 13.0697 51.2539 13.2917C50.8839 13.4989 50.5953 13.7949 50.3881 14.1797C50.1809 14.5644 50.0774 15.0084 50.0774 15.5115C50.0774 15.9999 50.1809 16.4439 50.3881 16.8435C50.5953 17.2283 50.8839 17.5317 51.2539 17.7536C51.6239 17.9608 52.0456 18.0644 52.5192 18.0644Z" fill="#121212"/>
<path fill-rule="evenodd" clip-rule="evenodd" d="M61.114 25.123C62.0167 25.5373 63.0601 25.7445 64.244 25.7445C65.3983 25.7445 66.4269 25.5151 67.3296 25.0563C68.2324 24.5975 68.9427 23.9612 69.4607 23.1473C69.9787 22.3333 70.238 21.3714 70.238 20.2614V10.1166H66.9078V10.8414C66.6602 10.633 66.3789 10.458 66.0643 10.3164C65.4871 10.0352 64.8285 9.89453 64.0886 9.89453C63.0971 9.89453 62.2165 10.1313 61.447 10.6049C60.6773 11.0637 60.0706 11.7 59.6266 12.514C59.1826 13.3132 58.9607 14.2159 58.9607 15.2223C58.9607 16.2139 59.1826 17.1166 59.6266 17.9305C60.0706 18.7445 60.6773 19.3883 61.447 19.8618C62.2165 20.3354 63.0971 20.5722 64.0886 20.5722C64.8138 20.5722 65.4723 20.4316 66.0643 20.1504C66.351 20.0142 66.61 19.8537 66.8413 19.6688V20.3502C66.8413 21.105 66.5971 21.6895 66.1087 22.1039C65.6352 22.5183 64.9766 22.7255 64.133 22.7255C63.4523 22.7255 62.8677 22.6071 62.3793 22.3703C61.9058 22.1335 61.4765 21.7857 61.0917 21.3269L59.0051 23.4136C59.523 24.1536 60.226 24.7234 61.114 25.123ZM65.9533 17.2424C65.6129 17.4496 65.206 17.5532 64.7324 17.5532C64.2588 17.5532 63.8444 17.4496 63.4892 17.2424C63.1488 17.0352 62.8825 16.754 62.6901 16.3988C62.4977 16.0288 62.4015 15.6366 62.4015 15.2223C62.4015 14.7783 62.4977 14.3787 62.6901 14.0236C62.8825 13.6684 63.1562 13.3872 63.5114 13.18C63.8666 12.9728 64.2736 12.8692 64.7324 12.8692C65.206 12.8692 65.6129 12.9728 65.9533 13.18C66.3085 13.3872 66.5748 13.6684 66.7525 14.0236C66.9449 14.3787 67.041 14.7783 67.041 15.2223C67.041 15.6662 66.9449 16.0658 66.7525 16.421C66.5748 16.7614 66.3085 17.0352 65.9533 17.2424Z" fill="#121212"/>
<path fill-rule="evenodd" clip-rule="evenodd" d="M77.3857 21.15C76.2755 21.15 75.2689 20.9059 74.3666 20.4175C73.4783 19.9143 72.7755 19.2336 72.2575 18.3752C71.7395 17.5168 71.4805 16.5549 71.4805 15.4894C71.4805 14.4238 71.7395 13.4693 72.2575 12.6257C72.7755 11.7822 73.4783 11.1162 74.3666 10.6279C75.2542 10.1246 76.2608 9.87305 77.3857 9.87305C78.5099 9.87305 79.5165 10.1173 80.4041 10.6056C81.2924 11.094 81.9952 11.7674 82.5132 12.6257C83.0312 13.4693 83.2902 14.4238 83.2902 15.4894C83.2902 16.5549 83.0312 17.5168 82.5132 18.3752C81.9952 19.2336 81.2924 19.9143 80.4041 20.4175C79.5165 20.9059 78.5099 21.15 77.3857 21.15ZM77.3857 18.0644C77.8736 18.0644 78.3027 17.9608 78.673 17.7536C79.0426 17.5317 79.324 17.2283 79.5165 16.8435C79.7237 16.4439 79.8273 15.9925 79.8273 15.4894C79.8273 14.9862 79.7237 14.5496 79.5165 14.1797C79.3093 13.7949 79.0209 13.4989 78.6506 13.2917C78.2957 13.0697 77.8736 12.9587 77.3857 12.9587C76.9118 12.9587 76.4897 13.0697 76.1201 13.2917C75.7498 13.4989 75.4614 13.7949 75.2542 14.1797C75.047 14.5644 74.9434 15.0084 74.9434 15.5115C74.9434 15.9999 75.047 16.4439 75.2542 16.8435C75.4614 17.2283 75.7498 17.5317 76.1201 17.7536C76.4897 17.9608 76.9118 18.0644 77.3857 18.0644Z" fill="#121212"/>
<path fill-rule="evenodd" clip-rule="evenodd" d="M96.0967 21.1272C95.3722 21.1272 94.7058 20.9866 94.0989 20.7054C93.7797 20.5574 93.4913 20.3807 93.2337 20.1754V25.4559H89.8814V10.1166H93.2778V10.8612C93.5242 10.6596 93.7979 10.4854 94.0989 10.3385C94.7058 10.0425 95.3722 9.89453 96.0967 9.89453C97.118 9.89453 98.021 10.1388 98.805 10.6272C99.6044 11.1155 100.226 11.7815 100.67 12.625C101.129 13.4686 101.358 14.4305 101.358 15.5108C101.358 16.5912 101.129 17.5532 100.67 18.3967C100.226 19.2403 99.6044 19.9062 98.805 20.3946C98.021 20.883 97.118 21.1272 96.0967 21.1272ZM95.4758 18.0637C95.9637 18.0637 96.3858 17.9527 96.7407 17.7308C97.111 17.5088 97.3994 17.2053 97.6066 16.8206C97.8138 16.4358 97.9174 15.9992 97.9174 15.5108C97.9174 15.0077 97.8138 14.5637 97.6066 14.179C97.3994 13.7942 97.111 13.4982 96.7407 13.291C96.3858 13.069 95.9714 12.958 95.4975 12.958C95.0243 12.958 94.6022 13.069 94.2326 13.291C93.877 13.4982 93.5963 13.7942 93.3891 14.179C93.1819 14.5637 93.0783 15.0077 93.0783 15.5108C93.0783 15.9992 93.1742 16.4358 93.3667 16.8206C93.5739 17.2053 93.8623 17.5088 94.2326 17.7308C94.6022 17.9527 95.0166 18.0637 95.4758 18.0637Z" fill="#121212"/>
<path d="M104.682 20.9282C105.304 21.0911 105.932 21.1724 106.569 21.1724C107.915 21.1724 108.981 20.8617 109.766 20.2401C110.564 19.6185 110.964 18.7824 110.964 17.7316C110.964 17.0509 110.839 16.5033 110.587 16.0889C110.335 15.6598 110.01 15.3194 109.61 15.0678C109.21 14.8162 108.788 14.6163 108.345 14.4684C107.901 14.3204 107.479 14.1946 107.08 14.091C106.68 13.9874 106.354 13.869 106.102 13.7358C105.851 13.6026 105.725 13.425 105.725 13.203C105.725 12.9958 105.822 12.8404 106.014 12.7368C106.206 12.6185 106.494 12.5593 106.879 12.5593C107.279 12.5593 107.686 12.6407 108.1 12.8035C108.529 12.9662 108.914 13.2475 109.255 13.6471L111.186 11.6936C110.698 11.072 110.062 10.6058 109.277 10.295C108.508 9.96946 107.664 9.80664 106.746 9.80664C105.874 9.80664 105.111 9.95462 104.46 10.2506C103.809 10.5466 103.305 10.9536 102.95 11.4715C102.596 11.9747 102.418 12.5741 102.418 13.2697C102.418 13.9208 102.544 14.461 102.795 14.8902C103.046 15.3045 103.372 15.6302 103.771 15.8669C104.171 16.1037 104.593 16.2887 105.037 16.4218C105.481 16.5551 105.903 16.6808 106.303 16.7993C106.702 16.9029 107.028 17.0287 107.279 17.1767C107.546 17.3099 107.679 17.5096 107.679 17.776C107.679 17.9832 107.568 18.146 107.346 18.2644C107.138 18.3828 106.835 18.442 106.436 18.442C105.858 18.442 105.326 18.3384 104.838 18.1312C104.349 17.9092 103.927 17.6058 103.572 17.221L101.641 19.1745C102.011 19.5741 102.455 19.9293 102.973 20.2401C103.506 20.536 104.075 20.7654 104.682 20.9282Z" fill="#121212"/>
<path d="M117.158 21.15C116.166 21.15 115.286 20.9502 114.516 20.5506C113.761 20.1362 113.17 19.5738 112.741 18.8635C112.311 18.1383 112.097 17.3096 112.097 16.3772V10.1172H115.493V16.3328C115.493 16.7028 115.552 17.021 115.671 17.2874C115.804 17.5538 115.996 17.761 116.248 17.909C116.5 18.0569 116.803 18.1309 117.158 18.1309C117.661 18.1309 118.061 17.9755 118.357 17.6647C118.653 17.3392 118.8 16.8952 118.8 16.3328V10.1172H122.197V16.355C122.197 17.3022 121.983 18.1383 121.553 18.8635C121.124 19.5738 120.532 20.1362 119.777 20.5506C119.022 20.9502 118.149 21.15 117.158 21.15Z" fill="#121212"/>
<path d="M127.282 10.1166H123.885V20.9052H127.282V14.6007C127.282 14.2308 127.356 13.92 127.504 13.6684C127.667 13.4168 127.882 13.2244 128.148 13.0912C128.414 12.9432 128.717 12.8692 129.058 12.8692C129.546 12.8692 129.953 13.0246 130.278 13.3354C130.619 13.6313 130.789 14.0532 130.789 14.6007V20.9052H134.186V14.6007C134.186 14.2308 134.26 13.92 134.408 13.6684C134.571 13.4168 134.785 13.2244 135.052 13.0912C135.318 12.9432 135.621 12.8692 135.962 12.8692C136.45 12.8692 136.857 13.0246 137.183 13.3354C137.523 13.6313 137.693 14.0532 137.693 14.6007V20.9052H141.09V14.2233C141.09 13.3206 140.897 12.551 140.512 11.9147C140.142 11.2635 139.632 10.7677 138.981 10.4274C138.345 10.0721 137.612 9.89453 136.783 9.89453C135.939 9.89453 135.177 10.0795 134.497 10.4496C134.054 10.6853 133.668 10.9895 133.337 11.3622C133.028 10.9723 132.653 10.6533 132.21 10.4051C131.618 10.0648 130.945 9.89453 130.19 9.89453C129.391 9.89453 128.673 10.0648 128.037 10.4051C127.76 10.5467 127.508 10.7163 127.282 10.9139V10.1166Z" fill="#121212"/>
</g>
<defs>
<clipPath id="clip0_1491_1345">
<rect width="141.4" height="28" fill="white"/>
</clipPath>
</defs>
</svg>
